<svg id="SvgjsSvg1001" width="1737" height="458.5" xmlns="http://www.w3.org/2000/svg" version="1.1" xmlns:xlink="http://www.w3.org/1999/xlink" xmlns:svgjs="http://svgjs.com/svgjs"><defs id="SvgjsDefs1002"><pattern id="SvgjsPattern1010" x="0" y="0" width="68.5" height="75" patternUnits="userSpaceOnUse"><image id="SvgjsImage1011" xlink:href="https://www.processon.com/public/static/assets/images/designer/network_azure/User.svg" width="68.5" height="75" preserveAspectRatio="none" crossOrigin="anonymous" x="0" y="0"></image></pattern><pattern id="SvgjsPattern1016" x="0" y="0" width="68" height="46" patternUnits="userSpaceOnUse"><image id="SvgjsImage1017" xlink:href="https://www.processon.com/public/static/assets/images/designer/network_azure/Laptop.svg" width="68" height="46" preserveAspectRatio="none" crossOrigin="anonymous" x="0" y="0"></image></pattern><pattern id="SvgjsPattern1022" x="0" y="0" width="75" height="61" patternUnits="userSpaceOnUse"><image id="SvgjsImage1023" xlink:href="https://www.processon.com/public/static/assets/images/designer/network_azure/WebRole.svg" width="75" height="61" preserveAspectRatio="none" crossOrigin="anonymous" x="0" y="0"></image></pattern><marker id="SvgjsMarker1030" markerWidth="14" markerHeight="10" refX="10" refY="5" viewBox="0 0 14 10" orient="auto" markerUnits="userSpaceOnUse" stroke-dasharray="0,0"><path id="SvgjsPath1031" d="M0,0 L14,5 L0,10 L0,0" fill="#323232" stroke="#323232" stroke-width="1"></path></marker><pattern id="SvgjsPattern1034" x="0" y="0" width="75" height="61" patternUnits="userSpaceOnUse"><image id="SvgjsImage1035" xlink:href="https://www.processon.com/public/static/assets/images/designer/network_azure/WebRole.svg" width="75" height="61" preserveAspectRatio="none" crossOrigin="anonymous" x="0" y="0"></image></pattern><pattern id="SvgjsPattern1044" x="0" y="0" width="75" height="61" patternUnits="userSpaceOnUse"><image id="SvgjsImage1045" xlink:href="https://www.processon.com/public/static/assets/images/designer/network_azure/WebRole.svg" width="75" height="61" preserveAspectRatio="none" crossOrigin="anonymous" x="0" y="0"></image></pattern><marker id="SvgjsMarker1052" markerWidth="14" markerHeight="10" refX="10" refY="5" viewBox="0 0 14 10" orient="auto" markerUnits="userSpaceOnUse" stroke-dasharray="0,0"><path id="SvgjsPath1053" d="M0,0 L14,5 L0,10 L0,0" fill="#323232" stroke="#323232" stroke-width="1"></path></marker><marker id="SvgjsMarker1056" markerWidth="14" markerHeight="10" refX="10" refY="5" viewBox="0 0 14 10" orient="auto" markerUnits="userSpaceOnUse" stroke-dasharray="0,0"><path id="SvgjsPath1057" d="M0,0 L14,5 L0,10 L0,0" fill="#323232" stroke="#323232" stroke-width="1"></path></marker><pattern id="SvgjsPattern1060" x="0" y="0" width="57" height="75" patternUnits="userSpaceOnUse"><image id="SvgjsImage1061" xlink:href="https://www.processon.com/public/static/assets/images/designer/network_azure/SQLAzure.svg" width="57" height="75" preserveAspectRatio="none" crossOrigin="anonymous" x="0" y="0"></image></pattern><pattern id="SvgjsPattern1066" x="0" y="0" width="75" height="75" patternUnits="userSpaceOnUse"><image id="SvgjsImage1067" xlink:href="https://www.processon.com/public/static/assets/images/designer/network_azure/AzureActiveDirectoryAccessControlServices_ACS.svg" width="75" height="75" preserveAspectRatio="none" crossOrigin="anonymous" x="0" y="0"></image></pattern><marker id="SvgjsMarker1072" markerWidth="14" markerHeight="10" refX="10" refY="5" viewBox="0 0 14 10" orient="auto" markerUnits="userSpaceOnUse" stroke-dasharray="0,0"><path id="SvgjsPath1073" d="M0,0 L14,5 L0,10 L0,0" fill="#323232" stroke="#323232" stroke-width="1"></path></marker><marker id="SvgjsMarker1076" markerWidth="14" markerHeight="10" refX="10" refY="5" viewBox="0 0 14 10" orient="auto" markerUnits="userSpaceOnUse" stroke-dasharray="0,0"><path id="SvgjsPath1077" d="M0,0 L14,5 L0,10 L0,0" fill="#323232" stroke="#323232" stroke-width="1"></path></marker><marker id="SvgjsMarker1080" markerWidth="14" markerHeight="10" refX="10" refY="5" viewBox="0 0 14 10" orient="auto" markerUnits="userSpaceOnUse" stroke-dasharray="0,0"><path id="SvgjsPath1081" d="M0,0 L14,5 L0,10 L0,0" fill="#323232" stroke="#323232" stroke-width="1"></path></marker><marker id="SvgjsMarker1090" markerWidth="14" markerHeight="10" refX="10" refY="5" viewBox="0 0 14 10" orient="auto" markerUnits="userSpaceOnUse" stroke-dasharray="0,0"><path id="SvgjsPath1091" d="M0,0 L14,5 L0,10 L0,0" fill="#323232" stroke="#323232" stroke-width="1"></path></marker><marker id="SvgjsMarker1104" markerWidth="14" markerHeight="10" refX="10" refY="5" viewBox="0 0 14 10" orient="auto" markerUnits="userSpaceOnUse" stroke-dasharray="0,0"><path id="SvgjsPath1105" d="M0,0 L14,5 L0,10 L0,0" fill="#323232" stroke="#323232" stroke-width="1"></path></marker><marker id="SvgjsMarker1112" markerWidth="14" markerHeight="10" refX="10" refY="5" viewBox="0 0 14 10" orient="auto" markerUnits="userSpaceOnUse" stroke-dasharray="0,0"><path id="SvgjsPath1113" d="M0,0 L14,5 L0,10 L0,0" fill="#323232" stroke="#323232" stroke-width="1"></path></marker><marker id="SvgjsMarker1128" markerWidth="14" markerHeight="10" refX="10" refY="5" viewBox="0 0 14 10" orient="auto" markerUnits="userSpaceOnUse" stroke-dasharray="0,0"><path id="SvgjsPath1129" d="M0,0 L14,5 L0,10 L0,0" fill="#323232" stroke="#323232" stroke-width="1"></path></marker><marker id="SvgjsMarker1138" markerWidth="14" markerHeight="10" refX="10" refY="5" viewBox="0 0 14 10" orient="auto" markerUnits="userSpaceOnUse" stroke-dasharray="0,0"><path id="SvgjsPath1139" d="M0,0 L14,5 L0,10 L0,0" fill="#323232" stroke="#323232" stroke-width="1"></path></marker><marker id="SvgjsMarker1142" markerWidth="14" markerHeight="10" refX="10" refY="5" viewBox="0 0 14 10" orient="auto" markerUnits="userSpaceOnUse" stroke-dasharray="0,0"><path id="SvgjsPath1143" d="M0,0 L14,5 L0,10 L0,0" fill="#323232" stroke="#323232" stroke-width="1"></path></marker><marker id="SvgjsMarker1154" markerWidth="14" markerHeight="10" refX="10" refY="5" viewBox="0 0 14 10" orient="auto" markerUnits="userSpaceOnUse" stroke-dasharray="0,0"><path id="SvgjsPath1155" d="M0,0 L14,5 L0,10 L0,0" fill="#323232" stroke="#323232" stroke-width="1"></path></marker><marker id="SvgjsMarker1164" markerWidth="14" markerHeight="10" refX="10" refY="5" viewBox="0 0 14 10" orient="auto" markerUnits="userSpaceOnUse" stroke-dasharray="0,0"><path id="SvgjsPath1165" d="M0,0 L14,5 L0,10 L0,0" fill="#323232" stroke="#323232" stroke-width="1"></path></marker><marker id="SvgjsMarker1168" markerWidth="14" markerHeight="10" refX="10" refY="5" viewBox="0 0 14 10" orient="auto" markerUnits="userSpaceOnUse" stroke-dasharray="0,0"><path id="SvgjsPath1169" d="M0,0 L14,5 L0,10 L0,0" fill="#323232" stroke="#323232" stroke-width="1"></path></marker><marker id="SvgjsMarker1182" markerWidth="14" markerHeight="10" refX="10" refY="5" viewBox="0 0 14 10" orient="auto" markerUnits="userSpaceOnUse" stroke-dasharray="0,0"><path id="SvgjsPath1183" d="M0,0 L14,5 L0,10 L0,0" fill="#323232" stroke="#323232" stroke-width="1"></path></marker><marker id="SvgjsMarker1198" markerWidth="14" markerHeight="10" refX="10" refY="5" viewBox="0 0 14 10" orient="auto" markerUnits="userSpaceOnUse" stroke-dasharray="0,0"><path id="SvgjsPath1199" d="M0,0 L14,5 L0,10 L0,0" fill="#323232" stroke="#323232" stroke-width="1"></path></marker><marker id="SvgjsMarker1202" markerWidth="14" markerHeight="10" refX="10" refY="5" viewBox="0 0 14 10" orient="auto" markerUnits="userSpaceOnUse" stroke-dasharray="0,0"><path id="SvgjsPath1203" d="M0,0 L14,5 L0,10 L0,0" fill="#323232" stroke="#323232" stroke-width="1"></path></marker><marker id="SvgjsMarker1214" markerWidth="14" markerHeight="10" refX="10" refY="5" viewBox="0 0 14 10" orient="auto" markerUnits="userSpaceOnUse" stroke-dasharray="0,0"><path id="SvgjsPath1215" d="M0,0 L14,5 L0,10 L0,0" fill="#323232" stroke="#323232" stroke-width="1"></path></marker><marker id="SvgjsMarker1218" markerWidth="14" markerHeight="10" refX="10" refY="5" viewBox="0 0 14 10" orient="auto" markerUnits="userSpaceOnUse" stroke-dasharray="0,0"><path id="SvgjsPath1219" d="M0,0 L14,5 L0,10 L0,0" fill="#323232" stroke="#323232" stroke-width="1"></path></marker><marker id="SvgjsMarker1236" markerWidth="14" markerHeight="10" refX="10" refY="5" viewBox="0 0 14 10" orient="auto" markerUnits="userSpaceOnUse" stroke-dasharray="0,0"><path id="SvgjsPath1237" d="M0,0 L14,5 L0,10 L0,0" fill="#323232" stroke="#323232" stroke-width="1"></path></marker><marker id="SvgjsMarker1246" markerWidth="14" markerHeight="10" refX="10" refY="5" viewBox="0 0 14 10" orient="auto" markerUnits="userSpaceOnUse" stroke-dasharray="0,0"><path id="SvgjsPath1247" d="M0,0 L14,5 L0,10 L0,0" fill="#323232" stroke="#323232" stroke-width="1"></path></marker><marker id="SvgjsMarker1262" markerWidth="14" markerHeight="10" refX="10" refY="5" viewBox="0 0 14 10" orient="auto" markerUnits="userSpaceOnUse" stroke-dasharray="0,0"><path id="SvgjsPath1263" d="M0,0 L14,5 L0,10 L0,0" fill="#323232" stroke="#323232" stroke-width="1"></path></marker><marker id="SvgjsMarker1266" markerWidth="14" markerHeight="10" refX="10" refY="5" viewBox="0 0 14 10" orient="auto" markerUnits="userSpaceOnUse" stroke-dasharray="0,0"><path id="SvgjsPath1267" d="M0,0 L14,5 L0,10 L0,0" fill="#323232" stroke="#323232" stroke-width="1"></path></marker></defs><g id="SvgjsG1008" transform="translate(25,236.5)"><path id="SvgjsPath1009" d="M 0 0L 68.5 0L 68.5 75L 0 75Z" stroke="none" fill="url(#SvgjsPattern1010)"></path><g id="SvgjsG1012"><text id="SvgjsText1013" font-family="微软雅黑" text-anchor="middle" font-size="13px" width="109px" fill="#323232" font-weight="400" align="middle" lineHeight="125%" anchor="middle" family="微软雅黑" size="13px" weight="400" font-style="" opacity="1" y="79.375" transform="rotate(0)"></text></g></g><g id="SvgjsG1014" transform="translate(148.5,251)"><path id="SvgjsPath1015" d="M 0 0L 68 0L 68 46L 0 46Z" stroke="none" fill="url(#SvgjsPattern1016)"></path><g id="SvgjsG1018"><text id="SvgjsText1019" font-family="微软雅黑" text-anchor="middle" font-size="13px" width="108px" fill="#323232" font-weight="400" align="middle" lineHeight="125%" anchor="middle" family="微软雅黑" size="13px" weight="400" font-style="" opacity="1" y="50.375" transform="rotate(0)"></text></g></g><g id="SvgjsG1020" transform="translate(429,95.5)"><path id="SvgjsPath1021" d="M 0 0L 75 0L 75 61L 0 61Z" stroke="none" fill="url(#SvgjsPattern1022)"></path><g id="SvgjsG1024"><text id="SvgjsText1025" font-family="微软雅黑" text-anchor="middle" font-size="13px" width="115px" fill="#323232" font-weight="400" align="middle" lineHeight="125%" anchor="middle" family="微软雅黑" size="13px" weight="400" font-style="" opacity="1" y="65.375" transform="rotate(0)"><tspan id="SvgjsTspan1026" dy="16" x="37.5"><tspan id="SvgjsTspan1027" style="text-decoration:;">用户</tspan></tspan></text></g></g><g id="SvgjsG1028"><path id="SvgjsPath1029" d="M93.5 274C 115.5 274 126.5 274 145.9 274" stroke="#323232" stroke-width="2" fill="none" marker-end="url(#SvgjsMarker1030)"></path></g><g id="SvgjsG1032" transform="translate(429,227)"><path id="SvgjsPath1033" d="M 0 0L 75 0L 75 61L 0 61Z" stroke="none" fill="url(#SvgjsPattern1034)"></path><g id="SvgjsG1036"><text id="SvgjsText1037" font-family="微软雅黑" text-anchor="middle" font-size="13px" width="115px" fill="#323232" font-weight="400" align="middle" lineHeight="125%" anchor="middle" family="微软雅黑" size="13px" weight="400" font-style="" opacity="1" y="56.875" transform="rotate(0)"><tspan id="SvgjsTspan1038" dy="16" x="37.5"><tspan id="SvgjsTspan1039" style="text-decoration:;font-weight: bold;">订单</tspan></tspan><tspan id="SvgjsTspan1040" dy="16" x="37.5"><tspan id="SvgjsTspan1041" style="text-decoration:;"> </tspan></tspan></text></g></g><g id="SvgjsG1042" transform="translate(437,358.5)"><path id="SvgjsPath1043" d="M 0 0L 75 0L 75 61L 0 61Z" stroke="none" fill="url(#SvgjsPattern1044)"></path><g id="SvgjsG1046"><text id="SvgjsText1047" font-family="微软雅黑" text-anchor="middle" font-size="13px" width="115px" fill="#323232" font-weight="400" align="middle" lineHeight="125%" anchor="middle" family="微软雅黑" size="13px" weight="400" font-style="" opacity="1" y="65.375" transform="rotate(0)"><tspan id="SvgjsTspan1048" dy="16" x="37.5"><tspan id="SvgjsTspan1049" style="text-decoration:;">供应商</tspan></tspan></text></g></g><g id="SvgjsG1050"><path id="SvgjsPath1051" d="M216.5 274C 242 274 254.75 274 277.65 274" stroke="#323232" stroke-width="2" fill="none" marker-end="url(#SvgjsMarker1052)"></path></g><g id="SvgjsG1054"><path id="SvgjsPath1055" d="M216.5 274C 242 274 254.75 274 277.65 274" stroke="#323232" stroke-width="2" fill="none" marker-end="url(#SvgjsMarker1056)"></path></g><g id="SvgjsG1058" transform="translate(1655,233)"><path id="SvgjsPath1059" d="M 0 0L 57 0L 57 75L 0 75Z" stroke="none" fill="url(#SvgjsPattern1060)"></path><g id="SvgjsG1062"><text id="SvgjsText1063" font-family="微软雅黑" text-anchor="middle" font-size="13px" width="97px" fill="#323232" font-weight="400" align="middle" lineHeight="125%" anchor="middle" family="微软雅黑" size="13px" weight="400" font-style="" opacity="1" y="79.375" transform="rotate(0)"></text></g></g><g id="SvgjsG1064" transform="translate(280.25,236.5)"><path id="SvgjsPath1065" d="M 0 0L 75 0L 75 75L 0 75Z" stroke="none" fill="url(#SvgjsPattern1066)"></path><g id="SvgjsG1068"><text id="SvgjsText1069" font-family="微软雅黑" text-anchor="middle" font-size="13px" width="115px" fill="#323232" font-weight="400" align="middle" lineHeight="125%" anchor="middle" family="微软雅黑" size="13px" weight="400" font-style="" opacity="1" y="79.375" transform="rotate(0)"></text></g></g><g id="SvgjsG1070"><path id="SvgjsPath1071" d="M317.75 311.5C 317.75 368.38839952046465 380.11160047953535 389 434.4012532287018 388.9192830955288" stroke="#323232" stroke-width="2" fill="none" marker-end="url(#SvgjsMarker1072)"></path></g><g id="SvgjsG1074"><path id="SvgjsPath1075" d="M355.25 274C 385.4792904316327 274 398.7707095683673 257.5 426.4091663265804 257.7181304120823" stroke="#323232" stroke-width="2" fill="none" marker-end="url(#SvgjsMarker1076)"></path></g><g id="SvgjsG1078"><path id="SvgjsPath1079" d="M317.75 236.5C 317.75 173.77926977465904 366.27926977465904 126 426.4044147588806 126.15145050704155" stroke="#323232" stroke-width="2" fill="none" marker-end="url(#SvgjsMarker1080)"></path></g><g id="SvgjsG1082" transform="translate(656.5,99)"><path id="SvgjsPath1083" d="M 0 0L 96 0L 96 54L 0 54Z" stroke="rgba(33,41,48,1)" stroke-width="2" fill-opacity="1" fill="#ffffff"></path><g id="SvgjsG1084"><text id="SvgjsText1085" font-family="微软雅黑" text-anchor="middle" font-size="13px" width="76px" fill="#323232" font-weight="400" align="middle" lineHeight="125%" anchor="middle" family="微软雅黑" size="13px" weight="400" font-style="" opacity="1" y="16.375" transform="rotate(0)"><tspan id="SvgjsTspan1086" dy="16" x="48"><tspan id="SvgjsTspan1087" style="text-decoration:;">增加用户</tspan></tspan></text></g></g><g id="SvgjsG1088"><path id="SvgjsPath1089" d="M504 126C 565 125.99999999999997 595.5 126 652.9 126" stroke="#323232" stroke-width="2" fill="none" marker-end="url(#SvgjsMarker1090)"></path><rect id="SvgjsRect1092" width="59" height="16" x="510.9425951999999" y="117.99999999999999" fill="#ffffff"></rect><text id="SvgjsText1093" font-family="微软雅黑" text-anchor="middle" font-size="13px" width="59px" fill="#323232" font-weight="400" align="top" lineHeight="16px" anchor="middle" family="微软雅黑" size="13px" weight="400" font-style="" opacity="1" y="115.37499999999999" transform="rotate(0)"><tspan id="SvgjsTspan1094" dy="16" x="540.4425951999999"><tspan id="SvgjsTspan1095" style="text-decoration:;">useradd.jsp</tspan></tspan></text></g><g id="SvgjsG1096" transform="translate(871.5,99)"><path id="SvgjsPath1097" d="M 0 0L 96 0L 96 54L 0 54Z" stroke="rgba(33,41,48,1)" stroke-width="2" fill-opacity="1" fill="#ffffff"></path><g id="SvgjsG1098"><text id="SvgjsText1099" font-family="微软雅黑" text-anchor="middle" font-size="13px" width="76px" fill="#323232" font-weight="400" align="middle" lineHeight="125%" anchor="middle" family="微软雅黑" size="13px" weight="400" font-style="" opacity="1" y="16.375" transform="rotate(0)"><tspan id="SvgjsTspan1100" dy="16" x="48"><tspan id="SvgjsTspan1101" style="text-decoration:;">Servlet</tspan></tspan></text></g></g><g id="SvgjsG1102"><path id="SvgjsPath1103" d="M753.5 126C 800.1 126 823.9 126 867.9 126" stroke="#323232" stroke-width="2" fill="none" marker-end="url(#SvgjsMarker1104)"></path><rect id="SvgjsRect1106" width="60" height="16" x="760.4449999999998" y="117.99999999999997" fill="#ffffff"></rect><text id="SvgjsText1107" font-family="微软雅黑" text-anchor="middle" font-size="13px" width="60px" fill="#323232" font-weight="400" align="top" lineHeight="16px" anchor="middle" family="微软雅黑" size="13px" weight="400" font-style="" opacity="1" y="115.37499999999997" transform="rotate(0)"><tspan id="SvgjsTspan1108" dy="16" x="790.4449999999998"><tspan id="SvgjsTspan1109" style="text-decoration:;">/jsp/user.do </tspan></tspan></text></g><g id="SvgjsG1110"><path id="SvgjsPath1111" d="M968.5 126C 1003.7 126 1021.8 126 1054.4 126" stroke="#323232" stroke-width="2" fill="none" marker-end="url(#SvgjsMarker1112)"></path></g><g id="SvgjsG1114" transform="translate(1058,99)"><path id="SvgjsPath1115" d="M 0 0L 96 0L 96 54L 0 54Z" stroke="rgba(33,41,48,1)" stroke-width="2" fill-opacity="1" fill="#ffffff"></path><g id="SvgjsG1116"><text id="SvgjsText1117" font-family="微软雅黑" text-anchor="middle" font-size="13px" width="76px" fill="#323232" font-weight="400" align="middle" lineHeight="125%" anchor="middle" family="微软雅黑" size="13px" weight="400" font-style="" opacity="1" y="16.375" transform="rotate(0)"><tspan id="SvgjsTspan1118" dy="16" x="48"><tspan id="SvgjsTspan1119" style="text-decoration:;">Service</tspan></tspan></text></g></g><g id="SvgjsG1120" transform="translate(1244.5,95.5)"><path id="SvgjsPath1121" d="M 0 0L 96 0L 96 54L 0 54Z" stroke="rgba(33,41,48,1)" stroke-width="2" fill-opacity="1" fill="#ffffff"></path><g id="SvgjsG1122"><text id="SvgjsText1123" font-family="微软雅黑" text-anchor="middle" font-size="13px" width="76px" fill="#323232" font-weight="400" align="middle" lineHeight="125%" anchor="middle" family="微软雅黑" size="13px" weight="400" font-style="" opacity="1" y="16.375" transform="rotate(0)"><tspan id="SvgjsTspan1124" dy="16" x="48"><tspan id="SvgjsTspan1125" style="text-decoration:;">DAO</tspan></tspan></text></g></g><g id="SvgjsG1126"><path id="SvgjsPath1127" d="M1154.9999228387549 125.98757757928647C 1190.2270617080658 126 1208.2729382919342 122.5 1240.9002777804824 122.54472071456871" stroke="#323232" stroke-width="2" fill="none" marker-end="url(#SvgjsMarker1128)"></path></g><g id="SvgjsG1130" transform="translate(1435.5,197)"><path id="SvgjsPath1131" d="M 0 0L 96 0L 96 54L 0 54Z" stroke="rgba(33,41,48,1)" stroke-width="2" fill-opacity="1" fill="#ffffff"></path><g id="SvgjsG1132"><text id="SvgjsText1133" font-family="微软雅黑" text-anchor="middle" font-size="13px" width="76px" fill="#323232" font-weight="400" align="middle" lineHeight="125%" anchor="middle" family="微软雅黑" size="13px" weight="400" font-style="" opacity="1" y="16.375" transform="rotate(0)"><tspan id="SvgjsTspan1134" dy="16" x="48"><tspan id="SvgjsTspan1135" style="text-decoration:;">JDBC</tspan></tspan></text></g></g><g id="SvgjsG1136"><path id="SvgjsPath1137" d="M1341.4865135584841 122.6636795617265C 1396.1089920786198 122.5 1379.8910079213802 224 1431.948551189457 223.41075357778462" stroke="#323232" stroke-width="2" fill="none" marker-end="url(#SvgjsMarker1138)"></path></g><g id="SvgjsG1140"><path id="SvgjsPath1141" d="M1532.4968352287397 224.07949545108815C 1584.285604098087 224 1602.214395901913 270.5 1652.408228405277 270.29331182717084" stroke="#323232" stroke-width="2" fill="none" marker-end="url(#SvgjsMarker1142)"></path></g><g id="SvgjsG1144" transform="translate(741.5,25)"><path id="SvgjsPath1145" d="M 0 0L 84 0L 100 16L 100 51L 0 51L 0 0Z" stroke="none" fill-opacity="1" fill="#fff7bc"></path><path id="SvgjsPath1146" d="M 84 0L 84 16L 100 16Z" stroke="none" fill-opacity="1" fill="#e4d089"></path><path id="SvgjsPath1147" d="M 0 0L 84 0L 100 16L 100 51L 0 51L 0 0Z" stroke="none" fill="none"></path><g id="SvgjsG1148"><text id="SvgjsText1149" font-family="微软雅黑" text-anchor="middle" font-size="13px" width="80px" fill="#323232" font-weight="400" align="middle" lineHeight="125%" anchor="middle" family="微软雅黑" size="13px" weight="400" font-style="" opacity="1" y="14.875" transform="rotate(0)"><tspan id="SvgjsTspan1150" dy="16" x="50"><tspan id="SvgjsTspan1151" style="text-decoration:;">method: add</tspan></tspan></text></g></g><g id="SvgjsG1152"><path id="SvgjsPath1153" d="M791.5 76C 791.5 88.4 791.5 94.6 791.5 107" stroke="#323232" stroke-width="2" fill="none" marker-end="url(#SvgjsMarker1154)"></path></g><g id="SvgjsG1156" transform="translate(656.5,189.5)"><path id="SvgjsPath1157" d="M 0 0L 85 0L 85 54L 0 54Z" stroke="rgba(33,41,48,1)" stroke-width="2" fill-opacity="1" fill="#ffffff"></path><g id="SvgjsG1158"><text id="SvgjsText1159" font-family="微软雅黑" text-anchor="middle" font-size="13px" width="65px" fill="#323232" font-weight="400" align="middle" lineHeight="125%" anchor="middle" family="微软雅黑" size="13px" weight="400" font-style="" opacity="1" y="16.375" transform="rotate(0)"><tspan id="SvgjsTspan1160" dy="16" x="42.5"><tspan id="SvgjsTspan1161" style="text-decoration:;">删除用户</tspan></tspan></text></g></g><g id="SvgjsG1162"><path id="SvgjsPath1163" d="M504 126C 574.9326441069272 126 585.5673558930728 216.5 652.913619857392 216.18714624389932" stroke="#323232" stroke-width="2" fill="none" marker-end="url(#SvgjsMarker1164)"></path></g><g id="SvgjsG1166"><path id="SvgjsPath1167" d="M742.4999381461904 216.4888777793028C 795.9720111616966 216.5 823.0279888383034 209.5 877.5 209.5" stroke="#323232" stroke-width="2" fill="none" marker-end="url(#SvgjsMarker1168)"></path><rect id="SvgjsRect1170" width="22" height="16" x="776.4820749502709" y="206.8048548179017" fill="#ffffff"></rect><text id="SvgjsText1171" font-family="微软雅黑" text-anchor="middle" font-size="13px" width="22px" fill="#323232" font-weight="400" align="top" lineHeight="16px" anchor="middle" family="微软雅黑" size="13px" weight="400" font-style="" opacity="1" y="204.1798548179017" transform="rotate(0)"><tspan id="SvgjsTspan1172" dy="16" x="787.4820749502709"><tspan id="SvgjsTspan1173" style="text-decoration:;">ajax</tspan></tspan></text></g><g id="SvgjsG1174" transform="translate(880.5,182.5)"><path id="SvgjsPath1175" d="M 0 0L 96 0L 96 54L 0 54Z" stroke="rgba(33,41,48,1)" stroke-width="2" fill-opacity="1" fill="#ffffff"></path><g id="SvgjsG1176"><text id="SvgjsText1177" font-family="微软雅黑" text-anchor="middle" font-size="13px" width="76px" fill="#323232" font-weight="400" align="middle" lineHeight="125%" anchor="middle" family="微软雅黑" size="13px" weight="400" font-style="" opacity="1" y="16.375" transform="rotate(0)"><tspan id="SvgjsTspan1178" dy="16" x="48"><tspan id="SvgjsTspan1179" style="text-decoration:;">Servlet</tspan></tspan></text></g></g><g id="SvgjsG1180"><path id="SvgjsPath1181" d="M977.5 209.5C 1012.7 209.5 1030.8 209.5 1063.4 209.5" stroke="#323232" stroke-width="2" fill="none" marker-end="url(#SvgjsMarker1182)"></path></g><g id="SvgjsG1184" transform="translate(1067,182.5)"><path id="SvgjsPath1185" d="M 0 0L 96 0L 96 54L 0 54Z" stroke="rgba(33,41,48,1)" stroke-width="2" fill-opacity="1" fill="#ffffff"></path><g id="SvgjsG1186"><text id="SvgjsText1187" font-family="微软雅黑" text-anchor="middle" font-size="13px" width="76px" fill="#323232" font-weight="400" align="middle" lineHeight="125%" anchor="middle" family="微软雅黑" size="13px" weight="400" font-style="" opacity="1" y="16.375" transform="rotate(0)"><tspan id="SvgjsTspan1188" dy="16" x="48"><tspan id="SvgjsTspan1189" style="text-decoration:;">Service</tspan></tspan></text></g></g><g id="SvgjsG1190" transform="translate(1253.5,179)"><path id="SvgjsPath1191" d="M 0 0L 96 0L 96 54L 0 54Z" stroke="rgba(33,41,48,1)" stroke-width="2" fill-opacity="1" fill="#ffffff"></path><g id="SvgjsG1192"><text id="SvgjsText1193" font-family="微软雅黑" text-anchor="middle" font-size="13px" width="76px" fill="#323232" font-weight="400" align="middle" lineHeight="125%" anchor="middle" family="微软雅黑" size="13px" weight="400" font-style="" opacity="1" y="16.375" transform="rotate(0)"><tspan id="SvgjsTspan1194" dy="16" x="48"><tspan id="SvgjsTspan1195" style="text-decoration:;">DAO</tspan></tspan></text></g></g><g id="SvgjsG1196"><path id="SvgjsPath1197" d="M1163.9999228387549 209.48757757928647C 1199.2270617080658 209.5 1217.2729382919342 206 1249.9002777804824 206.0447207145687" stroke="#323232" stroke-width="2" fill="none" marker-end="url(#SvgjsMarker1198)"></path></g><g id="SvgjsG1200"><path id="SvgjsPath1201" d="M1350.4976779885053 206.06810749776758C 1384.645412218382 206 1400.354587781618 224 1431.9083592413813 223.75481300803665" stroke="#323232" stroke-width="2" fill="none" marker-end="url(#SvgjsMarker1202)"></path></g><g id="SvgjsG1204" transform="translate(656.5,274)"><path id="SvgjsPath1205" d="M 0 0L 96 0L 96 54L 0 54Z" stroke="rgba(33,41,48,1)" stroke-width="2" fill-opacity="1" fill="#ffffff"></path><g id="SvgjsG1206"><text id="SvgjsText1207" font-family="微软雅黑" text-anchor="middle" font-size="13px" width="76px" fill="#323232" font-weight="400" align="middle" lineHeight="125%" anchor="middle" family="微软雅黑" size="13px" weight="400" font-style="" opacity="1" y="7.875" transform="rotate(0)"><tspan id="SvgjsTspan1208" dy="16" x="48"><tspan id="SvgjsTspan1209" style="text-decoration:;">修改用户信</tspan></tspan><tspan id="SvgjsTspan1210" dy="16" x="48"><tspan id="SvgjsTspan1211" style="text-decoration:;">息</tspan></tspan></text></g></g><g id="SvgjsG1212"><path id="SvgjsPath1213" d="M504 126C 596.8493403315285 126 563.6506596684715 301 652.918192700126 300.63853566348826" stroke="#323232" stroke-width="2" fill="none" marker-end="url(#SvgjsMarker1214)"></path></g><g id="SvgjsG1216"><path id="SvgjsPath1217" d="M753.5 301C 800.1 301 823.9 301 871.5 301" stroke="#323232" stroke-width="2" fill="none" marker-end="url(#SvgjsMarker1218)"></path><rect id="SvgjsRect1220" width="60" height="16" x="758.3044032" y="293" fill="#ffffff"></rect><text id="SvgjsText1221" font-family="微软雅黑" text-anchor="middle" font-size="13px" width="60px" fill="#323232" font-weight="400" align="top" lineHeight="16px" anchor="middle" family="微软雅黑" size="13px" weight="400" font-style="" opacity="1" y="290.375" transform="rotate(0)"><tspan id="SvgjsTspan1222" dy="16" x="788.3044032"><tspan id="SvgjsTspan1223" style="text-decoration:;">/jsp/user.do</tspan></tspan></text></g><g id="SvgjsG1224" transform="translate(748.5,358.5)"><path id="SvgjsPath1225" d="M 0 0L 84 0L 100 16L 100 44L 0 44L 0 0Z" stroke="none" fill-opacity="1" fill="#fff7bc"></path><path id="SvgjsPath1226" d="M 84 0L 84 16L 100 16Z" stroke="none" fill-opacity="1" fill="#e4d089"></path><path id="SvgjsPath1227" d="M 0 0L 84 0L 100 16L 100 44L 0 44L 0 0Z" stroke="none" fill="none"></path><g id="SvgjsG1228"><text id="SvgjsText1229" font-family="微软雅黑" text-anchor="middle" font-size="13px" width="80px" fill="#323232" font-weight="400" align="middle" lineHeight="125%" anchor="middle" family="微软雅黑" size="13px" weight="400" font-style="" opacity="1" y="2.875" transform="rotate(0)"><tspan id="SvgjsTspan1230" dy="16" x="50"><tspan id="SvgjsTspan1231" style="text-decoration:;">method: modif</tspan></tspan><tspan id="SvgjsTspan1232" dy="16" x="50"><tspan id="SvgjsTspan1233" style="text-decoration:;">y</tspan></tspan></text></g></g><g id="SvgjsG1234"><path id="SvgjsPath1235" d="M798.5 358.5C 798.5 342.20153381449654 792.5 334.8 788.5 319" stroke="#323232" stroke-width="2" fill="none" marker-end="url(#SvgjsMarker1236)"></path></g><g id="SvgjsG1238" transform="translate(871.5,277.5)"><path id="SvgjsPath1239" d="M 0 0L 96 0L 96 54L 0 54Z" stroke="rgba(33,41,48,1)" stroke-width="2" fill-opacity="1" fill="#ffffff"></path><g id="SvgjsG1240"><text id="SvgjsText1241" font-family="微软雅黑" text-anchor="middle" font-size="13px" width="76px" fill="#323232" font-weight="400" align="middle" lineHeight="125%" anchor="middle" family="微软雅黑" size="13px" weight="400" font-style="" opacity="1" y="16.375" transform="rotate(0)"><tspan id="SvgjsTspan1242" dy="16" x="48"><tspan id="SvgjsTspan1243" style="text-decoration:;">Servlet</tspan></tspan></text></g></g><g id="SvgjsG1244"><path id="SvgjsPath1245" d="M968.5 304.5C 1003.7 304.5 1021.8 304.5 1054.4 304.5" stroke="#323232" stroke-width="2" fill="none" marker-end="url(#SvgjsMarker1246)"></path></g><g id="SvgjsG1248" transform="translate(1058,277.5)"><path id="SvgjsPath1249" d="M 0 0L 96 0L 96 54L 0 54Z" stroke="rgba(33,41,48,1)" stroke-width="2" fill-opacity="1" fill="#ffffff"></path><g id="SvgjsG1250"><text id="SvgjsText1251" font-family="微软雅黑" text-anchor="middle" font-size="13px" width="76px" fill="#323232" font-weight="400" align="middle" lineHeight="125%" anchor="middle" family="微软雅黑" size="13px" weight="400" font-style="" opacity="1" y="16.375" transform="rotate(0)"><tspan id="SvgjsTspan1252" dy="16" x="48"><tspan id="SvgjsTspan1253" style="text-decoration:;">Service</tspan></tspan></text></g></g><g id="SvgjsG1254" transform="translate(1244.5,274)"><path id="SvgjsPath1255" d="M 0 0L 96 0L 96 54L 0 54Z" stroke="rgba(33,41,48,1)" stroke-width="2" fill-opacity="1" fill="#ffffff"></path><g id="SvgjsG1256"><text id="SvgjsText1257" font-family="微软雅黑" text-anchor="middle" font-size="13px" width="76px" fill="#323232" font-weight="400" align="middle" lineHeight="125%" anchor="middle" family="微软雅黑" size="13px" weight="400" font-style="" opacity="1" y="16.375" transform="rotate(0)"><tspan id="SvgjsTspan1258" dy="16" x="48"><tspan id="SvgjsTspan1259" style="text-decoration:;">DAO</tspan></tspan></text></g></g><g id="SvgjsG1260"><path id="SvgjsPath1261" d="M1154.9999228387549 304.4875775792865C 1190.2270617080658 304.5 1208.2729382919342 301 1240.9002777804824 301.0447207145687" stroke="#323232" stroke-width="2" fill="none" marker-end="url(#SvgjsMarker1262)"></path></g><g id="SvgjsG1264"><path id="SvgjsPath1265" d="M1341.4874593161396 300.84212631958025C 1389.4146194915181 301 1386.5853805084819 224 1431.9451464618978 224.56834524951108" stroke="#323232" stroke-width="2" fill="none" marker-end="url(#SvgjsMarker1266)"></path></g><g id="SvgjsG1268" transform="translate(374.5,89.5)"><path id="SvgjsPath1269" d="M 0 4Q 0 0 4 0L 26 0Q 30 0 30 4L 30 339.5Q 30 343.5 26 343.5L 4 343.5Q 0 343.5 0 339.5L 0 4Z" stroke="rgba(33,41,48,1)" stroke-width="2" fill-opacity="1" fill="#ffffff"></path></g><g id="SvgjsG1270" transform="translate(304.5,211)"><path id="SvgjsPath1271" d="M 0 0L 160 0L 160 40L 0 40Z" stroke="none" fill="none"></path><g id="SvgjsG1272"><text id="SvgjsText1273" font-family="微软雅黑" text-anchor="middle" font-size="13px" width="160px" fill="#e74f4c" font-weight="700" align="middle" lineHeight="125%" anchor="middle" family="微软雅黑" size="13px" weight="700" font-style="" opacity="1" y="9.375" transform="rotate(0)"><tspan id="SvgjsTspan1274" dy="16" x="80"><tspan id="SvgjsTspan1275" style="text-decoration:;">过滤器</tspan></tspan></text></g></g></svg>